<?xml version="1.0" encoding="UTF-8"?><svg id="OBJECTS" xmlns="http://www.w3.org/2000/svg" viewBox="0 0 500 334.7"><path d="m152.61,285.62c-19.99-24.37-30.02-55.67-33.67-86.97-3.16-27.06-1.76-55.09,7.88-80.57,9.64-25.48,28.11-48.24,52.87-59.62,23.46-10.78,50.51-10.73,76.04-6.86,25.52,3.88,50.42,11.35,76,14.81,17.24,2.34,35.65,3.17,49.97,13.04,12.59,8.69,20.09,23.44,22.66,38.52s.68,30.58-2.39,45.57c-8.36,40.82-25.94,80.38-54.47,110.75-50.51,53.77-142.78,74.85-194.9,11.32Z" fill="#e7ecf2" opacity=".17" stroke-width="0"/><path d="m223.19,148.64c-9.92-19.21-20.62-39.32-38.85-50.95-11.14-7.12-28.88-8.85-35.14,2.8-5.75,10.7,2.92,23.4,11.97,31.5,9.05,8.1,19.99,17.06,19.65,29.2-21.42-4.85-45.1,1.85-60.8,17.2-4.53,4.43-8.67,10.57-7.03,16.7,2.26,8.44,13.43,10.52,22.05,9.08,8.62-1.44,17.86-4.63,25.71-.79-12.06,1.83-24.42,3.76-35.04,9.74-10.62,5.99-19.3,17.01-18.92,29.2.37,11.94,9.46,22.34,20.36,27.21,10.91,4.87,23.32,5.1,35.21,3.99,28.4-2.67,56.08-12.64,79.65-28.71,17.17-11.7,24.31-23.97,13.39-41.11-11.38-17.86-22.26-35.78-32.22-55.07Z" fill="#3b4eff" stroke-width="0"/><path d="m319.86,285.12c37.06-17.53,70.14-43.42,96.06-75.18,3.34-4.1,6.65-8.44,7.96-13.56,1.31-5.12.16-11.23-4.09-14.37-4.67-3.46-11.56-2.22-16.19,1.29-4.63,3.51-7.51,8.79-10.26,13.91,9.02-12.46,14.42-25.82,18.38-40.68,2.16-8.1,3.43-17.07-.28-24.59-2.49-5.03-8.09-9.16-13.5-7.65-4.82,1.35-7.5,6.43-9.12,11.17-1.62,4.74-2.93,9.97-6.78,13.17,16.52-26.89,21.51-60.15,14.56-90.93-1.34-5.95-4.82-13.08-10.91-12.7-5.79.36-8.49,7.2-9.86,12.84-3.71,15.36-7.42,30.71-11.13,46.07-1.49-10.2-7.3-19.14-15.47-25.43-3.05-2.35-7.26-4.28-10.61-2.39-3.84,2.17-3.82,7.64-3.02,11.98,1.76,9.56,4.88,18.88,9.24,27.57-2.52-3.91-5.48-4.88-9.58-7.09-4.09-2.21-10.02-1.79-12.48,2.15-2.32,3.7-.73,8.51.91,12.56,5.52,13.64,11.04,27.27,16.56,40.91-2.8-3.92-6.86-6.07-11.15-8.27-4.29-2.2-10.07-2.18-13.43,1.27-4.12,4.24-2.89,11.24-.72,16.74,4,10.16,10.29,19.4,18.26,26.86-5.87-4.86-12.9-7.75-19.78-11.03-3.14-1.49-6.86-2.8-9.98-1.27-4.82,2.36-4.55,9.33-2.85,14.43,3.24,9.75,8.9,18.47,14.2,27.28,5.29,8.81,10.35,18.02,12.15,28.13,1.8,10.11.09,19.47-7.08,26.82Z" fill="#ffce33" stroke-width="0"/><path d="m196.52,211.78c16.12,2.94,29.85,1.66,30.68-2.84.82-4.51-11.58-10.54-27.7-13.48-16.12-2.94-29.85-1.67-30.68,2.84-.82,4.51,11.58,10.54,27.7,13.48Z" fill="#2e2e2e" stroke-width="0"/><path d="m169.63,288.8h0c-9.85-2.46-15.25-13.66-12.01-24.88l27.36-94.64c3.93-13.59,17.1-21.64,28.67-17.52h0c11.02,3.93,16.28,17.41,11.75,30.11l-33.09,92.85c-3.65,10.25-13.51,16.37-22.68,14.08Z" fill="#f5f5ff" stroke="#2e2e2e" stroke-linecap="round" stroke-linejoin="round" stroke-width=".57"/><path d="m169.01,197.73c1.84-4.05,15.07-5.07,30.48-2.28,16.12,2.94,28.54,8.98,27.7,13.5-.02.1-.05.18-.09.28l.17.03,6.68-41.52c2.62-16.3-8.34-31.42-23.86-32.86-2.94-.27-5.8-.05-8.54.63-9.78,2.43-17.71,10.56-20.19,21.16l-12.35,41.06Z" fill="#2e2e2e" stroke-width="0"/><polygon points="318.78 194.91 329.13 295.16 214.38 285.22 220.6 254.55 184.14 149.76 206.12 131.84 206.51 131.53 280.67 116.2 282.53 116.75 336.17 132.35 318.78 194.91" fill="#2e2e2e" stroke-width="0"/><path d="m343.41,208.07c-15.97,3.65-29.75,2.99-30.77-1.48-1.02-4.47,11.1-11.05,27.08-14.7,15.97-3.65,29.75-2.99,30.77,1.48,1.02,4.47-11.1,11.05-27.08,14.7Z" fill="#2e2e2e" stroke-width="0"/><path d="m352.38,310.93h0c10.13-.59,17.53-10.58,16.43-22.21l-9.27-98.07c-1.33-14.09-12.78-24.44-24.91-22.54h0c-11.56,1.81-19.24,14.07-17.15,27.39l15.24,97.38c1.68,10.75,10.23,18.6,19.67,18.05Z" fill="#f5f5ff" stroke="#2e2e2e" stroke-linecap="round" stroke-linejoin="round" stroke-width=".57"/><path d="m370.27,192.81c-2.02-3.96-15.28-4.4-30.55-.93-15.98,3.65-28.11,10.23-27.08,14.71.03.1.06.17.11.28l-.17.04-8.52-41.18c-3.34-16.17,6.94-31.76,22.38-33.88,2.92-.4,5.79-.31,8.56.25,9.87,1.99,18.16,9.76,21.1,20.24l14.16,40.48Z" fill="#2e2e2e" stroke-width="0"/><path d="m287.96,119.71c-8.56,16.21-18.59,45.58-36.83,47.16-1.52-3.74-3.16-7.02-4.83-9.92-10.57-18.35-23.21-21.99-27.29-38.57,17.73-6.84,34.61-14.42,52.34-21.26,2.48,5,4.04,7.72,5.45,9.69,2.63,3.7,4.7,4.73,11.16,12.9Z" fill="#f5f5ff" stroke="#2e2e2e" stroke-linecap="round" stroke-linejoin="round" stroke-width=".57"/><path d="m276.81,106.81c-2.55,13.3-8.56,25.88-17.09,36.38-3.36,4.17-8.3,10.4-13.41,13.77-10.57-18.35-23.21-21.99-27.29-38.57,17.73-6.84,34.61-14.42,52.34-21.26,2.48,5,4.04,7.72,5.45,9.69Z" fill="#2e2e2e" stroke-width="0"/><path d="m203.63,89.81c-3.38,1.76-7.72,1.47-10.84-.71-3.12-2.18-4.87-6.17-4.37-9.94-3.57-.54-6.79-4.84-7.29-8.42-.5-3.57,1.56-7.36,4.84-8.87-3.93-2.78-4.04-9.84-1.03-13.59,3.02-3.75,9.29-4.24,12.85-1-3.4-3.05-5.69-7.87-3.71-11.99,1.97-4.12,6.82-6.64,11.32-5.9-1.13-4.39.49-8.68,4.44-10.89,3.95-2.21,9.35-1.43,12.5,1.83.28-4.69,2.73-9.71,7.24-11.04,4.5-1.33,9.75.44,12.53,4.22,2.06-2.45,3.93-4.19,6.84-5.51,2.91-1.32,6.45-1.57,9.25-.04,2.81,1.53,4.56,5.08,3.5,8.1,2.07-2.93,6.45-2.2,9.24.07,2.78,2.27,3.1,6.96.65,9.58,3.57-3.47,10.31-3.56,14.19-.44s4.93,9.25,2.3,13.48c3.03.29,5.29,3.57,5.57,6.6.28,3.03-1.82,6.11-4.74,6.96,1.86,1.01,2.35,4.27,2.29,6.39-.06,2.12-1.4,4.15-3.32,5.04,3.53,8.46,4.31,18.5.66,26.9,1.76,3.68-1.51,8.96-5.44,10.07-3.93,1.11-8.2-.65-11.22-3.39-3.02-2.75-5.05-6.37-7.18-9.85-4.62-7.57-10.11-14.94-17.76-19.44-7.64-4.49-17.86-5.53-25.2-.55-8.11,5.5-9.43,17.82-18.12,22.35Z" fill="#2e2e2e" stroke-width="0"/><path d="m233.38,26.46c-20.2,4.4-34.31,21.6-35.67,41.23-.31,4.1-.03,8.32.86,12.55.6,6.19,1.94,12.3,4.08,18.14.79,2.14,1.24,4.41,1.15,6.69-.57,13.88,14.58,27.49,23.91,35.6,2.83,2.46,6.08,4.51,9.7,5.48,4.05,1.08,8.38.08,11.65-2.53,10.42-8.3,18.32-18.66,26.6-29.09,3.64-4.58,4.24-10.43,3.78-16.44.24-.32.51-.63.75-.96,7.11-10.06,10.13-22.96,7.3-35.94-5.34-24.53-29.57-40.09-54.1-34.75Z" fill="#f5f5ff" stroke="#2e2e2e" stroke-linecap="round" stroke-linejoin="round" stroke-width=".57"/><path d="m287.49,61.21c2.83,12.97-.19,25.87-7.3,35.94-4.2-1.03-7.98-3.74-9.83-7.62-1.12-2.41-1.51-5.09-2.37-7.6-.86-2.52-2.35-5.06-4.81-6.04-2.08-.83-4.61-.5-6.46-1.76-3.15-2.18-2.07-7.12-3.68-10.62-1.28-2.78-4.26-4.45-7.27-4.95-3.01-.52-6.08-.04-9.11.45-10.23,1.63-20.56,3.29-30.28,6.92-2.81,1.05-5.73,2.29-8.67,1.77,1.36-19.63,15.47-36.83,35.67-41.23,24.53-5.34,48.76,10.22,54.1,34.75Z" fill="#2e2e2e" stroke-width="0"/><path d="m278.91,99.84c4.07-.09,7.94-4.94,9.08-11.82,1.3-7.82-1.4-15.3-6.04-16.72-4.64-1.42-9.45,3.77-10.75,11.59-.53,3.2-.39,6.34.27,9.04" fill="#f5f5ff" stroke="#2e2e2e" stroke-linecap="round" stroke-linejoin="round" stroke-width=".57"/><path d="m271.48,91.92c.08.32.17.63.26.94" fill="#f5f5ff" stroke="#2e2e2e" stroke-linecap="round" stroke-linejoin="round" stroke-width=".57"/><path d="m280.13,75.55c1.84.09,3.64,1.42,4.54,3.37.9,1.95.88,4.45-.06,6.31" fill="none" stroke="#2e2e2e" stroke-linecap="round" stroke-linejoin="round" stroke-width=".57"/><path d="m231.2,83.73c1.52-1.57,3.37-2.63,5.31-3.41,1.95-.77,4-1.24,6.09-1.41,2.08-.17,4.19-.05,6.24.39,2.05.47,4.05,1.19,5.85,2.51-2.08.79-3.98,1.25-5.84,1.72-1.86.44-3.66.83-5.45,1.19-1.79.35-3.57.67-5.39.95-1.83.26-3.67.51-5.73.51h-.04c-.79,0-1.43-.64-1.43-1.43,0-.39.16-.74.4-1Z" fill="#2e2e2e" stroke-width="0"/><path d="m215.87,87.9c-1.75.54-3.07.88-4.42,1.12-1.33.23-2.62.35-3.93.35-1.31,0-2.62-.11-4-.36-1.38-.27-2.78-.66-4.44-1.44,1.09-1.49,2.49-2.35,3.93-2.96,1.45-.58,2.97-.87,4.5-.87,1.53,0,3.08.28,4.56.91,1.46.65,2.92,1.62,3.8,3.25Z" fill="#2e2e2e" stroke-width="0"/><path d="m218.79,89.15c1.07,1.89,3.03,8.23,4.1,10.12-1.06,4.09-4.06,9.36-5.38,12.83-.6,1.58,0,3.44,1.37,4.45,2.42,1.79,5.85,2.66,8.67,2.29" fill="none" stroke="#2e2e2e" stroke-linecap="round" stroke-linejoin="round" stroke-width=".57"/><path d="m225.42,115.72c1.47-.54,3.2-.35,4.51.52" fill="none" stroke="#2e2e2e" stroke-linecap="round" stroke-linejoin="round" stroke-width=".57"/><path d="m235.09,96.16c-.7-2.42.72-5.09,2.85-6.44,2.13-1.35,4.79-1.57,7.3-1.32,2.51.26,4.94.95,7.44,1.32-2.99,3.86-7.28,6.42-12.15,6.65" fill="none" stroke="#2e2e2e" stroke-linecap="round" stroke-linejoin="round" stroke-width=".57"/><path d="m238.81,92.03c-.35-1.61.67-3.19,2.28-3.54,1.61-.35,3.19.67,3.54,2.28.35,1.61-.67,3.19-2.28,3.54-1.61.35-3.19-.67-3.54-2.28Z" fill="#2e2e2e" stroke-width="0"/><path d="m208.87,95.51c-.31-1.44.6-2.85,2.03-3.17,1.44-.31,2.85.6,3.17,2.03.31,1.44-.6,2.85-2.03,3.17-1.44.31-2.85-.6-3.17-2.03Z" fill="#2e2e2e" stroke-width="0"/><path d="m217.46,97.57c-1.32-2.52-3.69-4.47-6.41-5.29-2.73-.82-5.78-.5-8.27.87.52,1.84,2.03,4.02,3.73,4.9,1.7.87,4.71,1.66,6.51,1.01" fill="none" stroke="#2e2e2e" stroke-linecap="round" stroke-linejoin="round" stroke-width=".57"/><path d="m227.37,132.33c5.12,1.03,10.72-.8,14.25-4.65" fill="none" stroke="#2e2e2e" stroke-linecap="round" stroke-linejoin="round" stroke-width=".57"/><path d="m222.9,126.38c1.71.93,3.79,1.13,5.65.57,1.03.77,2.52.26,3.25-.8,4.05-.21,8.25-1.39,11.73-3.49" fill="none" stroke="#2e2e2e" stroke-linecap="round" stroke-linejoin="round" stroke-width=".57"/><path d="m239.13,161.87c-.64-2.57-2.78-4.27-4.78-6.01-6.27-.12-17.51.31-17.4.53-.97,1.85-2.43,3.39-2.42,5.48,8.17,0,16.43,0,24.6,0Z" fill="#f5f5ff" stroke="#2e2e2e" stroke-linecap="round" stroke-linejoin="round" stroke-width=".57"/><path d="m236.6,158.14c9.47-6.53,14.94-16.61,14.58-27.95-15.39-8-34.46-9.19-50.06.74-1.35,11.01,4.62,22.54,14.48,27.99,6.99-2.97,13.95-3.61,21-.79Z" fill="#f5f5ff" stroke="#2e2e2e" stroke-linecap="round" stroke-linejoin="round" stroke-width=".57"/><path d="m249.41,140.36c-.61,2.05-1.42,4.02-2.45,5.88-13.36-5.77-28.91-6.38-42.33.76-.96-1.82-1.71-3.76-2.27-5.73,14.72-8.96,32.43-8.03,47.05-.9Z" fill="#ffce33" stroke-width="0"/><path d="m242.58,153.6c-1.22,0-2.37-.45-3.13-1.28-.35-.38-.32-.98.06-1.33.38-.35.98-.32,1.33.06.72.79,2.05.81,2.99.42,1.26-.52,2.22-1.7,2.83-2.54.26-.35.5-.71.74-1.07.58-.86,1.19-1.74,1.94-2.53,1.31-1.38,2.94-2.31,4.51-3.22,1.41-.81,2.74-1.58,3.83-2.62,1.5-1.44,2.5-3.44,2.75-5.5.11-.94.15-2.71-.88-4-1.46-1.82-4.43-1.78-6.45-.68-2.32,1.25-3.96,3.61-5.4,5.68-.3.43-.88.53-1.31.24-.43-.3-.53-.88-.24-1.31,1.48-2.14,3.33-4.79,6.05-6.26,2.66-1.44,6.66-1.53,8.81,1.16,1.08,1.35,1.54,3.27,1.28,5.4-.31,2.52-1.48,4.88-3.32,6.63-1.26,1.2-2.75,2.06-4.19,2.89-1.52.88-2.96,1.71-4.09,2.89-.65.68-1.18,1.46-1.75,2.29-.26.37-.51.75-.78,1.11-.75,1.02-1.93,2.47-3.62,3.17-.64.27-1.31.4-1.97.4Z" fill="#f5f5ff" stroke="#2e2e2e" stroke-linecap="round" stroke-linejoin="round" stroke-width=".57"/><path d="m239.13,161.87c0,1.29-5.51,2.33-12.3,2.33s-12.3-1.04-12.3-2.33,5.51-2.33,12.3-2.33,12.3,1.04,12.3,2.33Z" fill="#f5f5ff" stroke="#2e2e2e" stroke-linecap="round" stroke-linejoin="round" stroke-width=".57"/><path d="m368.83,293.86c-.43,3.34-1.67,6.54-3.64,9.3-1.95,2.76-4.62,5.07-7.89,6.63-10.24,4.88-22.5.53-27.36-9.71l-48.98-107.67-8.71-5c-.28-.07-.58-.15-.88-.23-5.69-1.56-10.37-5.37-13.3-10.35l-3.49-.86c-3.17-.81-5.11-4.02-4.32-7.19.19-.71.49-1.35.88-1.92l-2.46-.36c-2.95-.43-5.09-2.99-5.09-5.88,0-.28.02-.54.06-.83.24-1.6,1.09-2.95,2.25-3.85-2.5-.98-4.09-3.57-3.7-6.35.47-3.25,3.47-5.5,6.7-5.03l16.19,2.33c.49-.32.98-.62,1.5-.88l-15.31-4.13c-3.17-.86-5.03-4.11-4.19-7.29.85-3.1,3.98-4.94,7.08-4.21-.92-2.65-.92-5.63.24-8.41l27.27,11.34c1.31.54,2.31,1.52,2.93,2.69.08.09.17.19.23.3l10.82,17.03c.19.32.34.64.47.96.26.41.49.85.71,1.28,3.47,5.26,16.66,38.8,16.66,38.8l41.69,68.62" fill="#f5f5ff" stroke="#2e2e2e" stroke-linecap="round" stroke-linejoin="round" stroke-width=".57"/><polyline points="254.17 130.4 276.25 136.76 294.12 151.08" fill="none" stroke="#2e2e2e" stroke-linecap="round" stroke-linejoin="round" stroke-width=".57"/><line x1="245.35" y1="155.97" x2="259.52" y2="158.32" fill="none" stroke="#2e2e2e" stroke-linecap="round" stroke-linejoin="round" stroke-width=".57"/><line x1="251.13" y1="166.87" x2="258.39" y2="167.53" fill="none" stroke="#2e2e2e" stroke-linecap="round" stroke-linejoin="round" stroke-width=".57"/><path d="m280.51,191.9c2.24-.31,4.35-1.44,5.84-3.13" fill="none" stroke="#2e2e2e" stroke-linecap="round" stroke-linejoin="round" stroke-width=".57"/><path d="m181.11,231.87c-12.28-34.27-30.06-83.9-31.43-87.8-2.2-6.26-5.07-12.26-7.46-18.44-1.28-3.31-4.12-5.78-7.58-6.59l-1.06-.25-16.77-4.98c-2.33-.69-4.78.63-5.47,2.96-.69,2.33.64,4.78,2.96,5.47l10.64,3.16-1.14.74c-1.37-.32-2.79-.51-4.26-.51-1.54,0-3.03.21-4.46.56l-8.58-4.91-12.61-12c-1.52-1.45-3.82-1.54-5.45-.35l-1.08-1.37c-1.46-1.85-4.14-2.17-5.99-.71-.75.59-1.24,1.39-1.47,2.25-.66.12-1.3.38-1.86.82-1.85,1.46-2.17,4.14-.71,5.99l3.21,4.08c-.29.12-.57.26-.84.45-1.93,1.35-2.41,4.01-1.06,5.94,2.62,3.76,5.3,7.5,7.84,11.32,2.2,3.31,5.4,5.92,8.35,8.54,3.2,2.84,6.57,5.53,10.25,7.73,4.03,2.41,8.39,4.2,12.67,6.09,2.04.9,4.05,1.85,6.08,2.78.84.38,6.59,2.33,6.71,3.05l22.29,108.12c2.67,11.02,13.76,17.79,24.78,15.12h0c6.89-1.67,12.11-6.62,14.42-12.8" fill="#f5f5ff" stroke="#2e2e2e" stroke-linecap="round" stroke-linejoin="round" stroke-width=".57"/><path d="m130.69,165.39c2.76-1.6,5.04-4.03,6.47-6.88" fill="#f5f5ff" stroke="#2e2e2e" stroke-linecap="round" stroke-linejoin="round" stroke-width=".57"/><path d="m124.28,129.13c2.26,5.83,7.49,10.42,13.56,11.9" fill="#f5f5ff" stroke="#2e2e2e" stroke-linecap="round" stroke-linejoin="round" stroke-width=".57"/><polyline points="88.21 108.7 99.4 121.09 111.96 130.77" fill="#f5f5ff" stroke="#2e2e2e" stroke-linecap="round" stroke-linejoin="round" stroke-width=".57"/><polyline points="80.23 109.24 96 125.5 108.55 135.18" fill="#f5f5ff" stroke="#2e2e2e" stroke-linecap="round" stroke-linejoin="round" stroke-width=".57"/><polyline points="80.43 119.77 92.24 132.05 103.69 140.32" fill="#f5f5ff" stroke="#2e2e2e" stroke-linecap="round" stroke-linejoin="round" stroke-width=".57"/></svg>